Coordinates
version=1
nRows=16
nColumns=42
inDegrees=yes

Units are S.I. units (second, meters, Newtons, ...)
If the header above contains a line with 'inDegrees', this indicates whether rotational values are in degrees (yes) or radians (no).

endheader
time	pelvis_tilt	pelvis_list	pelvis_rotation	pelvis_tx	pelvis_ty	pelvis_tz	hip_flexion_r	hip_adduction_r	hip_rotation_r	knee_angle_r	knee_adduction_r	knee_angle_r_beta	ankle_angle_r	subtalar_angle_r	mtp_angle_r	hip_flexion_l	hip_adduction_l	hip_rotation_l	knee_angle_l	knee_adduction_l	knee_angle_l_beta	ankle_angle_l	subtalar_angle_l	mtp_angle_l	lumbar_extension	lumbar_bending	lumbar_rotation	arm_flex_r	arm_add_r	arm_rot_r	elbow_flex_r	pro_sup_r	wrist_flex_r	wrist_dev_r	arm_flex_l	arm_add_l	arm_rot_l	elbow_flex_l	pro_sup_l	wrist_flex_l	wrist_dev_l
      0.00000000	     -4.24359982	     -3.00306655	      0.54867848	     -1.38505029	      0.86651731	     -0.37945890	      1.50550655	      3.44637933	      0.44319916	      3.73713673	      8.31976574	      0.06522534	      7.37326362	      0.58066657	     -9.67510165	     24.63207036	     -6.66325527	      4.48283771	     61.73568072	      9.10755858	      1.07749089	      6.63633813	    -15.15321460	     -9.67510165	     -4.10786770	      0.77183147	      4.70264839	     -3.88485123	    -19.52550736	      8.28588570	     38.81610328	     90.00000001	      0.00000000	      0.00000000	     -0.32005227	    -10.86671211	     -8.02605738	     40.77187996	     90.00000001	      0.00000000	      0.00000000
      0.01000000	     -4.32090556	     -3.04229198	      0.62169683	     -1.37494576	      0.86564449	     -0.37863238	      0.84769472	      3.68555961	      0.28167937	      3.78034109	      8.12641330	      0.06597940	      7.89690085	      0.64060895	     -9.64281973	     26.19268743	     -6.67411990	      4.33644356	     59.93388438	      9.09943519	      1.04604362	      7.08001206	    -15.00012047	     -9.64281973	     -4.07881339	      0.69456416	      4.78527016	     -3.01035128	    -19.43515148	      8.22095758	     39.41956830	     90.00000001	      0.00000000	      0.00000000	     -0.69763558	    -11.00737799	     -8.11019587	     40.49721673	     90.00000001	      0.00000000	      0.00000000
      0.02000000	     -4.04580362	     -2.73891628	      0.68757171	     -1.36462570	      0.86521314	     -0.37817161	     -0.45058204	      3.43086515	      0.77815480	      3.27324357	      8.13861236	      0.05712888	      8.42836500	      0.35109489	     -9.50948743	     27.02879642	     -6.29662806	      4.49295358	     57.60794357	      9.52535009	      1.00544829	      7.49788692	    -15.71644637	     -9.50948743	     -4.47128531	      0.26730572	      4.84039536	     -2.03822733	    -19.30058771	      8.15774332	     39.94483396	     90.00000001	      0.00000000	      0.00000000	     -0.91680853	    -11.07201879	     -8.54237556	     40.04984139	     90.00000001	      0.00000000	      0.00000000
      0.03000000	     -4.16557780	     -2.90340177	      0.69890261	     -1.35448723	      0.86410420	     -0.37741373	     -1.01656319	      3.77828838	      0.59608509	      3.41439299	      8.00372953	      0.05959240	      8.86981180	      0.42132912	     -9.48141659	     28.42810547	     -6.51667780	      3.98718061	     55.47389595	      9.33031367	      0.96820213	      7.83335978	    -15.36188061	     -9.48141659	     -4.40946371	      0.34889670	      4.96222821	     -1.21275063	    -19.24701011	      8.12230034	     40.55368403	     90.00000001	      0.00000000	      0.00000000	     -1.30553121	    -11.15569427	     -8.62149273	     39.80627576	     90.00000001	      0.00000000	      0.00000000
      0.04000000	     -4.01664074	     -2.66360603	      0.53007704	     -1.34405072	      0.86338270	     -0.37683924	     -2.08014661	      3.57800724	      1.10780979	      3.13513390	      8.01604260	      0.05471841	      9.60231941	      0.57733858	     -9.42567028	     29.10747474	     -6.38229548	      3.42976933	     52.71872289	      9.43198563	      0.92011529	      8.58211324	    -15.34510506	     -9.42567028	     -4.62768802	      0.01444092	      5.22611930	     -0.32152549	    -19.19148490	      8.17460895	     41.10684839	     90.00000001	      0.00000000	      0.00000000	     -1.48019093	    -11.16918899	     -9.12134793	     39.23411924	     90.00000001	      0.00000000	      0.00000000
      0.05000000	     -3.73071586	     -2.46258484	      0.37138969	     -1.33354217	      0.86276401	     -0.37633350	     -3.24484693	      3.40533390	      1.38798320	      2.97807512	      8.04575764	      0.05197722	     10.00801589	      0.50544978	     -9.35719543	     29.51241253	     -6.30636635	      2.44298740	     49.77256175	      9.20677712	      0.86869508	      8.89045215	    -15.05592931	     -9.35719543	     -5.02714499	     -0.27752805	      5.47055948	      0.55954967	    -19.13717142	      8.24529034	     41.65692172	     90.00000001	      0.00000000	      0.00000000	     -1.69401728	    -11.19187835	     -9.52477609	     38.80483284	     90.00000001	      0.00000000	      0.00000000
      0.06000000	     -3.91235821	     -2.82803346	      0.41934569	     -1.32317948	      0.86129589	     -0.37579769	     -3.73477213	      3.92272032	      1.04991288	      3.19479492	      7.98507502	      0.05575969	     10.32355063	      0.52301168	     -9.33324182	     30.64543231	     -6.77905778	      1.50980051	     47.13690938	      8.80351977	      0.82269427	      8.94451070	    -14.49495123	     -9.33324182	     -4.86426163	      0.07314750	      5.48187139	      1.34581908	    -19.11122028	      8.21400629	     42.28644501	     90.00000001	      0.00000000	      0.00000000	     -2.13763634	    -11.27013018	     -9.57154935	     38.61172268	     90.00000001	      0.00000000	      0.00000000
      0.07000000	     -3.27564185	     -2.20501558	      0.00300131	     -1.31236797	      0.86116373	     -0.37539792	     -5.37763767	      3.19557675	      1.79852498	      2.84489715	      8.08497319	      0.04965282	     10.73425058	      0.39382382	     -9.23281248	     30.03551446	     -6.37414868	      0.06270453	     43.30347878	      8.63550893	      0.75578828	      9.34649495	    -13.73988906	     -9.23281248	     -5.67219680	     -0.68420371	      5.94362869	      2.23184894	    -19.05487148	      8.42731367	     42.80815620	     90.00000001	      0.00000000	      0.00000000	     -2.17058144	    -11.23011945	    -10.22981880	     38.00224001	     90.00000001	      0.00000000	      0.00000000
      0.08000000	     -3.40792823	     -2.33043965	     -0.24499210	     -1.30195571	      0.85982664	     -0.37469998	     -5.92841754	      3.41801803	      2.00629152	      3.01655923	      8.00360808	      0.05264889	     11.15628860	      0.52938933	     -9.18948122	     30.52589732	     -6.80351924	     -0.82112585	     39.87446456	      8.75372644	      0.69594069	      9.50056075	    -12.74401648	     -9.18948122	     -5.59570064	     -0.61833526	      6.23567217	      2.97145908	    -19.02519892	      8.56571933	     43.41616335	     90.00000001	      0.00000000	      0.00000000	     -2.43549787	    -11.25284165	    -10.47907932	     37.57990067	     90.00000001	      0.00000000	      0.00000000
      0.09000000	     -3.09860445	     -2.22483950	     -0.54394234	     -1.29111277	      0.85900712	     -0.37438836	     -7.06153745	      3.23012348	      2.24660271	      3.02518079	      8.14315801	      0.05279937	     11.54699706	      0.52735492	     -9.12818517	     30.19436536	     -6.91930100	     -1.99711216	     36.08442301	      8.70752567	      0.62979199	      9.69900418	    -11.72813204	     -9.12818517	     -5.98516078	     -0.77204504	      6.60214722	      3.73060598	    -19.04459205	      8.74235422	     43.92730286	     90.00000001	      0.00000000	      0.00000000	     -2.56005057	    -11.15986893	    -10.94921593	     37.07038948	     90.00000001	      0.00000000	      0.00000000
      0.10000000	     -2.79470940	     -2.07699563	     -0.89618072	     -1.28014296	      0.85815391	     -0.37397764	     -8.19508227	      3.01616033	      2.58456357	      3.03210164	      8.19061026	      0.05292016	     11.82293724	      0.53203698	     -9.05251067	     29.67729974	     -7.00455287	     -3.14961847	     32.19482562	      8.73512232	      0.56190571	      9.61107189	    -10.58813061	     -9.05251067	     -6.36954523	     -0.99226687	      6.91386889	      4.47342196	    -19.02400066	      8.93683567	     44.53963647	     90.00000001	      0.00000000	      0.00000000	     -2.78288719	    -11.17442258	    -11.38103933	     36.58865344	     90.00000001	      0.00000000	      0.00000000
      0.11000000	     -2.65092634	     -2.08749523	     -1.27634364	     -1.26916720	      0.85704033	     -0.37354069	     -9.08406495	      2.96739878	      2.91278848	      3.18688478	      8.22477083	      0.05562163	     12.11253354	      0.55532043	     -8.98374998	     29.24622614	     -7.28495896	     -4.04906720	     28.39193550	      8.94871119	      0.49553276	      9.40400934	     -9.45420230	     -8.98374998	     -6.56244014	     -1.03103674	      7.29817846	      5.12129075	    -19.04671128	      9.15519950	     45.14214467	     90.00000001	      0.00000000	      0.00000000	     -2.98726757	    -11.13653819	    -11.76414742	     36.12512564	     90.00000001	      0.00000000	      0.00000000
      0.12000000	     -2.95954104	     -2.43960689	     -1.56566785	     -1.25826162	      0.85529677	     -0.37301049	     -9.38677471	      3.42629879	      3.03404226	      3.57725195	      8.03045771	      0.06243482	     12.34768187	      0.70909849	     -8.95653293	     29.47551597	     -7.88577975	     -4.86901261	     25.17385312	      9.07406013	      0.43936662	      8.86412242	     -8.20371721	     -8.95653293	     -6.24477361	     -0.69279735	      7.67119447	      5.57837772	    -19.10533474	      9.33856064	     45.77288942	     90.00000001	      0.00000000	      0.00000000	     -3.33756994	    -11.10277185	    -11.96005019	     35.89339993	     90.00000001	      0.00000000	      0.00000000
      0.13000000	     -2.37449058	     -2.13730939	     -2.12082690	     -1.24676056	      0.85477457	     -0.37279942	    -10.77116435	      2.81632952	      3.62305414	      3.71258502	      8.31154218	      0.06479683	     12.59793803	      0.68464841	     -8.88979798	     28.07288257	     -7.83523648	     -5.58452082	     21.30359275	      9.44786431	      0.37181784	      8.65791585	     -7.32404490	     -8.88979798	     -6.88483241	     -1.07348402	      8.11947628	      6.21473730	    -19.12485137	      9.65732907	     46.38426205	     90.00000001	      0.00000000	      0.00000000	     -3.39185227	    -11.03577260	    -12.58559575	     35.18989577	     90.00000001	      0.00000000	      0.00000000
      0.14000000	     -2.26122425	     -2.13742345	     -2.56380849	     -1.23535888	      0.85365942	     -0.37251433	    -11.56478567	      2.66740410	      4.12005356	      4.01834765	      8.37629922	      0.07013340	     12.70176136	      0.58548052	     -8.81024314	     27.41579913	     -8.03232677	     -6.16165900	     18.20503952	      9.67674464	      0.31773788	      8.03491457	     -6.60073477	     -8.81024314	     -7.00180076	     -1.12181446	      8.53936966	      6.66331594	    -19.16425530	      9.90677328	     47.00269021	     90.00000001	      0.00000000	      0.00000000	     -3.60791071	    -10.99761160	    -12.93997148	     34.78173265	     90.00000001	      0.00000000	      0.00000000
      0.15000000	     -2.52399300	     -2.37588900	     -2.97221559	     -1.22408877	      0.85213354	     -0.37204188	    -11.79258270	      2.90470110	      4.44655202	      4.68039761	      8.24293537	      0.08168835	     12.82270359	      0.62719526	     -8.78529131	     27.37830306	     -8.53885615	     -6.72161457	     15.94358079	      9.92094147	      0.27826798	      7.62867953	     -5.53355419	     -8.78529131	     -6.71035467	     -0.90847727	      8.95369104	      6.98594779	    -19.20483018	     10.14431199	     47.61570554	     90.00000001	      0.00000000	      0.00000000	     -3.86645848	    -11.00571950	    -13.14526395	     34.43776869	     90.00000001	      0.00000000	      0.00000000
